<mxfile host="app.diagrams.net" modified="2022-07-13T05:29:36.752Z" agent="5.0 (X11; Linux x86_64) AppleWebKit/537.36 (KHTML, like Gecko) Chrome/102.0.0.0 Safari/537.36" etag="wUrTb0pNIL7sdHAR75VL" version="20.0.4" type="github">
  <diagram id="R2lEEEUBdFMjLlhIrx00" name="Page-1">
    <mxGraphModel dx="868" dy="488" grid="1" gridSize="10" guides="1" tooltips="1" connect="1" arrows="1" fold="1" page="1" pageScale="1" pageWidth="850" pageHeight="1100" math="0" shadow="0" extFonts="Permanent Marker^https://fonts.googleapis.com/css?family=Permanent+Marker">
      <root>
        <mxCell id="0" />
        <mxCell id="1" parent="0" />
        <mxCell id="5S9MMPU5qZkrFcxa-tyb-1" value="Cuartel" style="whiteSpace=wrap;html=1;align=center;" vertex="1" parent="1">
          <mxGeometry x="577.5" y="640" width="100" height="40" as="geometry" />
        </mxCell>
        <mxCell id="5S9MMPU5qZkrFcxa-tyb-2" value="CuerpoE" style="whiteSpace=wrap;html=1;align=center;" vertex="1" parent="1">
          <mxGeometry x="540" y="140" width="100" height="40" as="geometry" />
        </mxCell>
        <mxCell id="5S9MMPU5qZkrFcxa-tyb-3" value="Soldado" style="whiteSpace=wrap;html=1;align=center;" vertex="1" parent="1">
          <mxGeometry x="190" y="350" width="100" height="40" as="geometry" />
        </mxCell>
        <mxCell id="5S9MMPU5qZkrFcxa-tyb-4" value="CompaÃ±ia" style="whiteSpace=wrap;html=1;align=center;" vertex="1" parent="1">
          <mxGeometry x="190" y="600" width="100" height="40" as="geometry" />
        </mxCell>
        <mxCell id="5S9MMPU5qZkrFcxa-tyb-5" value="Servicio" style="whiteSpace=wrap;html=1;align=center;" vertex="1" parent="1">
          <mxGeometry x="665" y="470" width="100" height="40" as="geometry" />
        </mxCell>
        <mxCell id="5S9MMPU5qZkrFcxa-tyb-6" value="cod_sold" style="ellipse;whiteSpace=wrap;html=1;fillColor=#FFFF99;" vertex="1" parent="1">
          <mxGeometry x="110" y="240" width="80" height="50" as="geometry" />
        </mxCell>
        <mxCell id="5S9MMPU5qZkrFcxa-tyb-7" value="num_comp" style="ellipse;whiteSpace=wrap;html=1;fillColor=#FFFF99;" vertex="1" parent="1">
          <mxGeometry x="60" y="530" width="90" height="60" as="geometry" />
        </mxCell>
        <mxCell id="5S9MMPU5qZkrFcxa-tyb-8" value="cod_serv" style="ellipse;whiteSpace=wrap;html=1;fillColor=#FFFF99;" vertex="1" parent="1">
          <mxGeometry x="620" y="390" width="90" height="60" as="geometry" />
        </mxCell>
        <mxCell id="5S9MMPU5qZkrFcxa-tyb-9" value="cod_cuart" style="ellipse;whiteSpace=wrap;html=1;fillColor=#FFFF99;" vertex="1" parent="1">
          <mxGeometry x="692.5" y="560" width="90" height="60" as="geometry" />
        </mxCell>
        <mxCell id="5S9MMPU5qZkrFcxa-tyb-10" value="" style="endArrow=none;html=1;rounded=0;entryX=0.5;entryY=1;entryDx=0;entryDy=0;exitX=0;exitY=0.5;exitDx=0;exitDy=0;" edge="1" parent="1" source="5S9MMPU5qZkrFcxa-tyb-3" target="5S9MMPU5qZkrFcxa-tyb-6">
          <mxGeometry width="50" height="50" relative="1" as="geometry">
            <mxPoint x="225" y="355" as="sourcePoint" />
            <mxPoint x="275" y="305" as="targetPoint" />
          </mxGeometry>
        </mxCell>
        <mxCell id="5S9MMPU5qZkrFcxa-tyb-11" value="nombre_sold" style="ellipse;whiteSpace=wrap;html=1;fillColor=#FFFFFF;" vertex="1" parent="1">
          <mxGeometry x="40" y="290" width="90" height="50" as="geometry" />
        </mxCell>
        <mxCell id="5S9MMPU5qZkrFcxa-tyb-12" value="apellido_sold" style="ellipse;whiteSpace=wrap;html=1;fillColor=#FFFFFF;" vertex="1" parent="1">
          <mxGeometry x="40" y="430" width="90" height="50" as="geometry" />
        </mxCell>
        <mxCell id="5S9MMPU5qZkrFcxa-tyb-13" value="grado_sold" style="ellipse;whiteSpace=wrap;html=1;fillColor=#FFFFFF;" vertex="1" parent="1">
          <mxGeometry x="10" y="370" width="90" height="50" as="geometry" />
        </mxCell>
        <mxCell id="5S9MMPU5qZkrFcxa-tyb-18" value="" style="endArrow=none;html=1;rounded=0;entryX=1;entryY=1;entryDx=0;entryDy=0;" edge="1" parent="1" target="5S9MMPU5qZkrFcxa-tyb-11">
          <mxGeometry width="50" height="50" relative="1" as="geometry">
            <mxPoint x="190" y="370" as="sourcePoint" />
            <mxPoint x="345" y="320" as="targetPoint" />
          </mxGeometry>
        </mxCell>
        <mxCell id="5S9MMPU5qZkrFcxa-tyb-19" value="" style="endArrow=none;html=1;rounded=0;entryX=1;entryY=0.5;entryDx=0;entryDy=0;" edge="1" parent="1" target="5S9MMPU5qZkrFcxa-tyb-13">
          <mxGeometry width="50" height="50" relative="1" as="geometry">
            <mxPoint x="190" y="370" as="sourcePoint" />
            <mxPoint x="285" y="380" as="targetPoint" />
          </mxGeometry>
        </mxCell>
        <mxCell id="5S9MMPU5qZkrFcxa-tyb-20" value="" style="endArrow=none;html=1;rounded=0;entryX=1;entryY=0;entryDx=0;entryDy=0;exitX=0;exitY=0.5;exitDx=0;exitDy=0;" edge="1" parent="1" source="5S9MMPU5qZkrFcxa-tyb-3" target="5S9MMPU5qZkrFcxa-tyb-12">
          <mxGeometry width="50" height="50" relative="1" as="geometry">
            <mxPoint x="275" y="420" as="sourcePoint" />
            <mxPoint x="325" y="370" as="targetPoint" />
          </mxGeometry>
        </mxCell>
        <mxCell id="5S9MMPU5qZkrFcxa-tyb-23" value="nombre_cuart" style="ellipse;whiteSpace=wrap;html=1;fillColor=#FFFFFF;" vertex="1" parent="1">
          <mxGeometry x="722.5" y="635" width="90" height="50" as="geometry" />
        </mxCell>
        <mxCell id="5S9MMPU5qZkrFcxa-tyb-24" value="ubic_cuart" style="ellipse;whiteSpace=wrap;html=1;fillColor=#FFFFFF;" vertex="1" parent="1">
          <mxGeometry x="662.5" y="710" width="90" height="50" as="geometry" />
        </mxCell>
        <mxCell id="5S9MMPU5qZkrFcxa-tyb-25" value="" style="endArrow=none;html=1;rounded=0;exitX=0.5;exitY=0;exitDx=0;exitDy=0;entryX=0;entryY=1;entryDx=0;entryDy=0;" edge="1" parent="1" source="5S9MMPU5qZkrFcxa-tyb-1" target="5S9MMPU5qZkrFcxa-tyb-9">
          <mxGeometry width="50" height="50" relative="1" as="geometry">
            <mxPoint x="652.5" y="650" as="sourcePoint" />
            <mxPoint x="702.5" y="600" as="targetPoint" />
          </mxGeometry>
        </mxCell>
        <mxCell id="5S9MMPU5qZkrFcxa-tyb-26" value="" style="endArrow=none;html=1;rounded=0;entryX=0;entryY=0.5;entryDx=0;entryDy=0;exitX=1;exitY=0.5;exitDx=0;exitDy=0;" edge="1" parent="1" source="5S9MMPU5qZkrFcxa-tyb-1" target="5S9MMPU5qZkrFcxa-tyb-23">
          <mxGeometry width="50" height="50" relative="1" as="geometry">
            <mxPoint x="662.5" y="670" as="sourcePoint" />
            <mxPoint x="712.5" y="620" as="targetPoint" />
          </mxGeometry>
        </mxCell>
        <mxCell id="5S9MMPU5qZkrFcxa-tyb-27" value="" style="endArrow=none;html=1;rounded=0;entryX=0.5;entryY=0;entryDx=0;entryDy=0;" edge="1" parent="1" target="5S9MMPU5qZkrFcxa-tyb-24">
          <mxGeometry width="50" height="50" relative="1" as="geometry">
            <mxPoint x="672.5" y="680" as="sourcePoint" />
            <mxPoint x="732.5" y="670" as="targetPoint" />
          </mxGeometry>
        </mxCell>
        <mxCell id="5S9MMPU5qZkrFcxa-tyb-28" value="cod_cuerpo" style="ellipse;whiteSpace=wrap;html=1;fillColor=#FFFF99;" vertex="1" parent="1">
          <mxGeometry x="560" y="40" width="90" height="60" as="geometry" />
        </mxCell>
        <mxCell id="5S9MMPU5qZkrFcxa-tyb-29" value="denom_cuerpo" style="ellipse;whiteSpace=wrap;html=1;fillColor=#FFFFFF;" vertex="1" parent="1">
          <mxGeometry x="650" y="80" width="90" height="50" as="geometry" />
        </mxCell>
        <mxCell id="5S9MMPU5qZkrFcxa-tyb-30" value="" style="endArrow=none;html=1;rounded=0;entryX=0.5;entryY=1;entryDx=0;entryDy=0;exitX=0.5;exitY=0;exitDx=0;exitDy=0;" edge="1" parent="1" source="5S9MMPU5qZkrFcxa-tyb-2" target="5S9MMPU5qZkrFcxa-tyb-28">
          <mxGeometry width="50" height="50" relative="1" as="geometry">
            <mxPoint x="470" y="290" as="sourcePoint" />
            <mxPoint x="520" y="240" as="targetPoint" />
          </mxGeometry>
        </mxCell>
        <mxCell id="5S9MMPU5qZkrFcxa-tyb-31" value="" style="endArrow=none;html=1;rounded=0;entryX=0.5;entryY=1;entryDx=0;entryDy=0;exitX=1;exitY=0.5;exitDx=0;exitDy=0;" edge="1" parent="1" source="5S9MMPU5qZkrFcxa-tyb-2" target="5S9MMPU5qZkrFcxa-tyb-29">
          <mxGeometry width="50" height="50" relative="1" as="geometry">
            <mxPoint x="550" y="170" as="sourcePoint" />
            <mxPoint x="535" y="130" as="targetPoint" />
          </mxGeometry>
        </mxCell>
        <mxCell id="5S9MMPU5qZkrFcxa-tyb-32" value="actividad_comp" style="ellipse;whiteSpace=wrap;html=1;fillColor=#FFFFFF;" vertex="1" parent="1">
          <mxGeometry x="20" y="595" width="90" height="50" as="geometry" />
        </mxCell>
        <mxCell id="5S9MMPU5qZkrFcxa-tyb-33" value="" style="endArrow=none;html=1;rounded=0;exitX=0;exitY=0.5;exitDx=0;exitDy=0;entryX=1;entryY=0.5;entryDx=0;entryDy=0;" edge="1" parent="1" source="5S9MMPU5qZkrFcxa-tyb-4" target="5S9MMPU5qZkrFcxa-tyb-32">
          <mxGeometry width="50" height="50" relative="1" as="geometry">
            <mxPoint x="305" y="630" as="sourcePoint" />
            <mxPoint x="355" y="580" as="targetPoint" />
          </mxGeometry>
        </mxCell>
        <mxCell id="5S9MMPU5qZkrFcxa-tyb-34" value="" style="endArrow=none;html=1;rounded=0;exitX=0;exitY=0.5;exitDx=0;exitDy=0;entryX=0.5;entryY=1;entryDx=0;entryDy=0;" edge="1" parent="1" source="5S9MMPU5qZkrFcxa-tyb-4" target="5S9MMPU5qZkrFcxa-tyb-7">
          <mxGeometry width="50" height="50" relative="1" as="geometry">
            <mxPoint x="145" y="610" as="sourcePoint" />
            <mxPoint x="210" y="580" as="targetPoint" />
          </mxGeometry>
        </mxCell>
        <mxCell id="5S9MMPU5qZkrFcxa-tyb-35" value="actividad_serv" style="ellipse;whiteSpace=wrap;html=1;fillColor=#FFFFFF;" vertex="1" parent="1">
          <mxGeometry x="805" y="420" width="90" height="50" as="geometry" />
        </mxCell>
        <mxCell id="5S9MMPU5qZkrFcxa-tyb-36" value="" style="endArrow=none;html=1;rounded=0;entryX=0.5;entryY=1;entryDx=0;entryDy=0;exitX=0.5;exitY=0;exitDx=0;exitDy=0;" edge="1" parent="1" source="5S9MMPU5qZkrFcxa-tyb-5" target="5S9MMPU5qZkrFcxa-tyb-8">
          <mxGeometry width="50" height="50" relative="1" as="geometry">
            <mxPoint x="505" y="490" as="sourcePoint" />
            <mxPoint x="555" y="440" as="targetPoint" />
          </mxGeometry>
        </mxCell>
        <mxCell id="5S9MMPU5qZkrFcxa-tyb-37" value="" style="endArrow=none;html=1;rounded=0;entryX=0.5;entryY=1;entryDx=0;entryDy=0;exitX=1;exitY=0.5;exitDx=0;exitDy=0;" edge="1" parent="1" source="5S9MMPU5qZkrFcxa-tyb-5" target="5S9MMPU5qZkrFcxa-tyb-35">
          <mxGeometry width="50" height="50" relative="1" as="geometry">
            <mxPoint x="725" y="480" as="sourcePoint" />
            <mxPoint x="690" y="450" as="targetPoint" />
          </mxGeometry>
        </mxCell>
        <mxCell id="5S9MMPU5qZkrFcxa-tyb-38" value="1:N" style="rhombus;whiteSpace=wrap;html=1;fillColor=#FFFFFF;" vertex="1" parent="1">
          <mxGeometry x="370" y="120" width="80" height="80" as="geometry" />
        </mxCell>
        <mxCell id="5S9MMPU5qZkrFcxa-tyb-40" value="" style="endArrow=none;html=1;rounded=0;exitX=0.5;exitY=0;exitDx=0;exitDy=0;entryX=0;entryY=0.5;entryDx=0;entryDy=0;" edge="1" parent="1" source="5S9MMPU5qZkrFcxa-tyb-3" target="5S9MMPU5qZkrFcxa-tyb-38">
          <mxGeometry width="50" height="50" relative="1" as="geometry">
            <mxPoint x="400" y="320" as="sourcePoint" />
            <mxPoint x="240" y="200" as="targetPoint" />
            <Array as="points">
              <mxPoint x="240" y="160" />
            </Array>
          </mxGeometry>
        </mxCell>
        <mxCell id="5S9MMPU5qZkrFcxa-tyb-41" value="" style="endArrow=none;html=1;rounded=0;exitX=1;exitY=0.5;exitDx=0;exitDy=0;" edge="1" parent="1" source="5S9MMPU5qZkrFcxa-tyb-38" target="5S9MMPU5qZkrFcxa-tyb-2">
          <mxGeometry width="50" height="50" relative="1" as="geometry">
            <mxPoint x="400" y="320" as="sourcePoint" />
            <mxPoint x="450" y="270" as="targetPoint" />
          </mxGeometry>
        </mxCell>
        <mxCell id="5S9MMPU5qZkrFcxa-tyb-42" value="1" style="text;html=1;align=center;verticalAlign=middle;resizable=0;points=[];autosize=1;strokeColor=none;fillColor=none;" vertex="1" parent="1">
          <mxGeometry x="210" y="320" width="30" height="30" as="geometry" />
        </mxCell>
        <mxCell id="5S9MMPU5qZkrFcxa-tyb-45" value="1" style="text;html=1;align=center;verticalAlign=middle;resizable=0;points=[];autosize=1;strokeColor=none;fillColor=none;" vertex="1" parent="1">
          <mxGeometry x="515" y="135" width="30" height="30" as="geometry" />
        </mxCell>
        <mxCell id="5S9MMPU5qZkrFcxa-tyb-46" value="&lt;span style=&quot;color: rgb(0, 0, 0); font-family: Helvetica; font-size: 12px; font-style: normal; font-variant-ligatures: normal; font-variant-caps: normal; font-weight: 400; letter-spacing: normal; orphans: 2; text-align: center; text-indent: 0px; text-transform: none; widows: 2; word-spacing: 0px; -webkit-text-stroke-width: 0px; background-color: rgb(248, 249, 250); text-decoration-thickness: initial; text-decoration-style: initial; text-decoration-color: initial; float: none; display: inline !important;&quot;&gt;1&lt;/span&gt;" style="text;whiteSpace=wrap;html=1;" vertex="1" parent="1">
          <mxGeometry x="525" y="160" width="40" height="40" as="geometry" />
        </mxCell>
        <mxCell id="5S9MMPU5qZkrFcxa-tyb-47" value="&lt;div style=&quot;text-align: center;&quot;&gt;N&lt;/div&gt;" style="text;whiteSpace=wrap;html=1;" vertex="1" parent="1">
          <mxGeometry x="250" y="320" width="40" height="40" as="geometry" />
        </mxCell>
        <mxCell id="5S9MMPU5qZkrFcxa-tyb-48" value="1:N" style="rhombus;whiteSpace=wrap;html=1;fillColor=#FFFFFF;" vertex="1" parent="1">
          <mxGeometry x="200" y="460" width="80" height="80" as="geometry" />
        </mxCell>
        <mxCell id="5S9MMPU5qZkrFcxa-tyb-49" value="" style="endArrow=none;html=1;rounded=0;exitX=0.5;exitY=0;exitDx=0;exitDy=0;" edge="1" parent="1" source="5S9MMPU5qZkrFcxa-tyb-4" target="5S9MMPU5qZkrFcxa-tyb-48">
          <mxGeometry width="50" height="50" relative="1" as="geometry">
            <mxPoint x="400" y="480" as="sourcePoint" />
            <mxPoint x="450" y="430" as="targetPoint" />
          </mxGeometry>
        </mxCell>
        <mxCell id="5S9MMPU5qZkrFcxa-tyb-50" value="" style="endArrow=none;html=1;rounded=0;exitX=0.5;exitY=0;exitDx=0;exitDy=0;entryX=0.5;entryY=1;entryDx=0;entryDy=0;" edge="1" parent="1" source="5S9MMPU5qZkrFcxa-tyb-48" target="5S9MMPU5qZkrFcxa-tyb-3">
          <mxGeometry width="50" height="50" relative="1" as="geometry">
            <mxPoint x="400" y="480" as="sourcePoint" />
            <mxPoint x="450" y="430" as="targetPoint" />
          </mxGeometry>
        </mxCell>
        <mxCell id="5S9MMPU5qZkrFcxa-tyb-51" value="1" style="text;html=1;align=center;verticalAlign=middle;resizable=0;points=[];autosize=1;strokeColor=none;fillColor=none;" vertex="1" parent="1">
          <mxGeometry x="210" y="390" width="30" height="30" as="geometry" />
        </mxCell>
        <mxCell id="5S9MMPU5qZkrFcxa-tyb-52" value="1" style="text;html=1;align=center;verticalAlign=middle;resizable=0;points=[];autosize=1;strokeColor=none;fillColor=none;" vertex="1" parent="1">
          <mxGeometry x="210" y="570" width="30" height="30" as="geometry" />
        </mxCell>
        <mxCell id="5S9MMPU5qZkrFcxa-tyb-53" value="1" style="text;html=1;align=center;verticalAlign=middle;resizable=0;points=[];autosize=1;strokeColor=none;fillColor=none;" vertex="1" parent="1">
          <mxGeometry x="240" y="570" width="30" height="30" as="geometry" />
        </mxCell>
        <mxCell id="5S9MMPU5qZkrFcxa-tyb-54" value="&lt;div style=&quot;text-align: center;&quot;&gt;N&lt;/div&gt;" style="text;whiteSpace=wrap;html=1;" vertex="1" parent="1">
          <mxGeometry x="250" y="390" width="40" height="40" as="geometry" />
        </mxCell>
      </root>
    </mxGraphModel>
  </diagram>
</mxfile>
